<svg xmlns:dc="http://purl.org/dc/elements/1.1/" xmlns:cc="http://creativecommons.org/ns#" xmlns:rdf="http://www.w3.org/1999/02/22-rdf-syntax-ns#" xmlns:svg="http://www.w3.org/2000/svg" xmlns="http://www.w3.org/2000/svg" xmlns:sodipodi="http://sodipodi.sourceforge.net/DTD/sodipodi-0.dtd" xmlns:inkscape="http://www.inkscape.org/namespaces/inkscape" version="1.1" x="0px" y="0px" viewBox="0 0 100 125"><g transform="translate(0,-952.36218)"><path style="text-indent:0;text-transform:none;direction:ltr;block-progression:tb;baseline-shift:baseline;color:#000000;enable-background:accumulate;" d="m 16.093652,970.36405 c -5.30284,0.1289 -9.62665,4.30313 -10.03125,9.53125 l -0.0624,44.125 c 0,5.6812 4.65859,10.3438 10.34375,10.3438 l 67.28125,0 c 5.685166,0 10.374996,-4.6626 10.374996,-10.3438 l -0.0312,-44.03125 c -0.36375,-5.35666 -4.8998,-9.625 -10.343746,-9.625 l -67.28125,0 c -0.0832,-0.005 -0.16678,-0.005 -0.25,0 z m 0.0937,4 c 0.0521,0.002 0.10419,0.002 0.15625,0 l 67.28125,0 c 3.152066,0 5.785546,2.28849 6.281246,5.28125 l -36.937496,36.8438 c -2.02584,1.6839 -4.18845,1.5882 -6,0 l -36.875,-36.7813 c 0.46692,-2.96888 2.99538,-5.26675 6.09375,-5.34375 z m 73.812496,10.8125 0,38.84375 c 0,3.4989 -2.86485,6.3438 -6.374996,6.3438 l -67.28125,0 c -3.51015,0 -6.34375,-2.8449 -6.34375,-6.3438 l 0,-38.78125 34.125,34.09375 c 3.276,3.0946 8.45087,3.1375 11.6875,0 z" fill="#000000" fill-opacity="1" fill-rule="evenodd" stroke="none" marker="none" visibility="visible" display="inline" overflow="visible"/></g><text x="0" y="115" fill="#000000" font-size="5px" font-weight="bold" font-family="'Helvetica Neue', Helvetica, Arial-Unicode, Arial, Sans-serif">Created by andriwidodo</text><text x="0" y="120" fill="#000000" font-size="5px" font-weight="bold" font-family="'Helvetica Neue', Helvetica, Arial-Unicode, Arial, Sans-serif">from the Noun Project</text></svg>