<svg xmlns="http://www.w3.org/2000/svg" xmlns:xlink="http://www.w3.org/1999/xlink" version="1.1" x="0px" y="0px" viewBox="0 0 512 640" style="enable-background:new 0 0 512 512;" xml:space="preserve"><g><path d="M256,30c-70.4,0-128,55.9-128,124.6v34.2c-21,3.7-38,22.6-38,45.3V436c0,25.4,20.9,46,46.2,46h239.5   c25.4,0,46.2-20.6,46.2-46V234.1c0-22.7-17-41.6-38-45.3v-34.2C384,85.9,326.4,30,256,30z M256,54c57.1,0,104,45.1,104,100.6V188   H152v-33.4C152,99.1,198.9,54,256,54z M398,436c0,12.2-9.8,22-22,22H136c-12.2,0-22-9.8-22-22V234c0-12.2,9.8-22,22-22h240   c12.2,0,22,9.8,22,22V436z"/><path d="M256,285.2c-27.2,0-49.3,21.7-49.3,48.4s22.1,48.4,49.3,48.4s49.3-21.7,49.3-48.4S283.2,285.2,256,285.2z    M256,357.9c-14,0-25.3-10.9-25.3-24.4c0-13.4,11.4-24.4,25.3-24.4s25.3,10.9,25.3,24.4C281.3,347,270,357.9,256,357.9z"/></g><text x="0" y="527" fill="#000000" font-size="5px" font-weight="bold" font-family="'Helvetica Neue', Helvetica, Arial-Unicode, Arial, Sans-serif">Created by Karan</text><text x="0" y="532" fill="#000000" font-size="5px" font-weight="bold" font-family="'Helvetica Neue', Helvetica, Arial-Unicode, Arial, Sans-serif">from the Noun Project</text></svg>