<svg xmlns="http://www.w3.org/2000/svg" xmlns:xlink="http://www.w3.org/1999/xlink" version="1.1" x="0px" y="0px" viewBox="0 0 91.7741928 125" style="enable-background:new 0 0 91.7741928 100;" xml:space="preserve"><path d="M54.6594963,54.3756714c9.4563637-3.5596924,16.203434-12.6956177,16.203434-23.3810425  c0-13.7714844-11.2041054-24.9755859-24.976078-24.9755859c-13.7714844,0-24.9755859,11.2041016-24.9755859,24.9755859  c0,10.6853638,6.7471313,19.8212891,16.203186,23.3810425C18.9480095,58.3970947,5.3155637,74.6223145,5.3155637,93.980957  h3.9999995c0-20.1650391,16.4057617-36.5712891,36.5712891-36.5712891s36.5717812,16.40625,36.5717812,36.5712891h4  C86.4586334,74.6223755,72.8261871,58.3971558,54.6594963,54.3756714z M24.9112663,30.9946289  c0-11.565918,9.409668-20.9755859,20.9755859-20.9755859s20.976078,9.409668,20.976078,20.9755859  s-9.4101601,20.9755859-20.976078,20.9755859S24.9112663,42.5605469,24.9112663,30.9946289z"/><text x="0" y="115" fill="#000000" font-size="5px" font-weight="bold" font-family="'Helvetica Neue', Helvetica, Arial-Unicode, Arial, Sans-serif">Created by Bellowen</text><text x="0" y="120" fill="#000000" font-size="5px" font-weight="bold" font-family="'Helvetica Neue', Helvetica, Arial-Unicode, Arial, Sans-serif">from the Noun Project</text></svg>