<svg xmlns="http://www.w3.org/2000/svg" xmlns:xlink="http://www.w3.org/1999/xlink" version="1.1" x="0px" y="0px" viewBox="0 0 100 125" style="enable-background:new 0 0 100 100;" xml:space="preserve"><path d="M71.6,87.5c-0.3,0-0.6,0-0.9,0l-0.9-0.1c-14.9-0.9-28.9-7.3-39.5-17.8C19.6,58.8,13.2,44.4,12.5,29.2  c-0.2-4.1,1.4-8.1,4.2-11l5.1-5.1c0.8-0.8,2-0.8,2.8,0l16.2,16.2c0.4,0.4,0.6,0.9,0.6,1.4s-0.2,1-0.6,1.4l-7.6,7.6  c-0.4,0.4-0.5,0.9-0.4,1.4l0.3,1c1.5,5.8,4.5,11,8.7,15.2c4.4,4.4,10,7.5,16.1,8.9c0.5,0.1,1,0,1.3-0.4l7.7-7.7c0.8-0.8,2-0.8,2.8,0  l17.1,17.1c0.4,0.4,0.6,0.9,0.6,1.4s-0.2,1-0.6,1.4l-5,5C79.2,86,75.5,87.5,71.6,87.5z M23.3,17.3L19.6,21c-2.1,2.1-3.2,5-3.1,8  c0.7,14.3,6.6,27.7,16.7,37.8c9.9,9.9,23,15.8,36.9,16.7l0.9,0.1c3,0.2,6-0.9,8.1-3.1l3.6-3.6L68.4,62.5l-6.3,6.3  c-1.3,1.3-3.2,1.9-5,1.4c-6.8-1.6-13.1-5-18-10c-4.7-4.7-8.1-10.6-9.8-17l-0.3-1c-0.5-1.8,0.1-3.8,1.4-5.2l6.2-6.2L23.3,17.3z"/><text x="0" y="115" fill="#000000" font-size="5px" font-weight="bold" font-family="'Helvetica Neue', Helvetica, Arial-Unicode, Arial, Sans-serif">Created by Blair Adams</text><text x="0" y="120" fill="#000000" font-size="5px" font-weight="bold" font-family="'Helvetica Neue', Helvetica, Arial-Unicode, Arial, Sans-serif">from the Noun Project</text></svg>